<svg width="800" height="800" viewBox="0 0 800 800" fill="none" xmlns="http://www.w3.org/2000/svg">
<rect width="800" height="800" rx="150" fill="#051C57"/>
<path d="M159.412 277.334C187.855 257.017 635.259 537.072 626.371 564.538C617.484 592.003 205.04 586.082 185.483 564.538C165.927 542.993 130.968 297.651 159.412 277.334Z" fill="white" fill-opacity="0.5"/>
<path d="M645.463 277.795C617.02 257.478 169.616 537.533 178.504 564.999C187.391 592.464 599.835 586.543 619.392 564.999C638.948 543.454 673.907 298.112 645.463 277.795Z" fill="white" fill-opacity="0.5"/>
<path d="M401.779 156.445C354.968 156.451 169.612 537.531 178.499 564.997C187.386 592.463 613.794 590.221 622.217 564.997C630.64 539.772 448.589 156.44 401.779 156.445Z" fill="white" fill-opacity="0.5"/>
</svg>
