<svg width="800" height="800" viewBox="0 0 800 800" fill="none" xmlns="http://www.w3.org/2000/svg">
<rect width="800" height="800" rx="80" fill="#7BA0FF"/>
<path d="M183.533 301.46C208.816 283.4 606.508 532.337 598.608 556.751C590.708 581.165 224.091 575.902 206.707 556.751C189.324 537.6 158.25 319.519 183.533 301.46Z" fill="white" fill-opacity="0.5"/>
<path d="M615.577 301.866C590.294 283.806 192.602 532.743 200.502 557.158C208.402 581.572 575.019 576.308 592.402 557.158C609.785 538.007 640.86 319.925 615.577 301.866Z" fill="white" fill-opacity="0.5"/>
<path d="M398.967 194C357.358 194.005 192.597 532.743 200.497 557.157C208.396 581.571 587.426 579.579 594.913 557.157C602.399 534.735 440.577 193.995 398.967 194Z" fill="white" fill-opacity="0.5"/>
</svg>
