<svg width="800" height="800" viewBox="0 0 800 800" fill="none" xmlns="http://www.w3.org/2000/svg">
<rect width="800" height="800" rx="100" fill="#051C57"/>
<path d="M129.338 273.997C161.337 251.141 664.666 566.202 654.668 597.101C644.669 628 180.67 621.339 158.669 597.101C136.668 572.863 97.3393 296.854 129.338 273.997Z" fill="white" fill-opacity="0.5"/>
<path d="M676.146 274.521C644.147 251.664 140.818 566.725 150.817 597.624C160.815 628.523 624.815 621.862 646.816 597.624C668.816 573.387 708.145 297.377 676.146 274.521Z" fill="white" fill-opacity="0.5"/>
<path d="M402.001 138C349.339 138.006 140.813 566.721 150.811 597.62C160.81 628.519 640.519 625.998 649.994 597.62C659.47 569.243 454.663 137.994 402.001 138Z" fill="white" fill-opacity="0.5"/>
</svg>
