<?xml version="1.0" encoding="utf-8"?><!-- Uploaded to: SVG Repo, www.svgrepo.com, Generator: SVG Repo Mixer Tools -->
<svg fill="#000000" width="800px" height="800px" viewBox="-1 0 19 19" xmlns="http://www.w3.org/2000/svg" class="cf-icon-svg"><path d="M16.417 9.583A7.917 7.917 0 1 1 8.5 1.666a7.917 7.917 0 0 1 7.917 7.917zm-5.861 2.781a1.918 1.918 0 0 0 1.487-3.13A2.65 2.65 0 0 0 7.965 5.88a2.703 2.703 0 1 0-3.2 4.356c-.005.07-.01.14-.01.21a2.703 2.703 0 0 0 4.84 1.659 1.91 1.91 0 0 0 .961.26zM6.661 9.042a.593.593 0 1 1-.587-.627.581.581 0 0 1 .587.627zm2.06 0a.593.593 0 1 1-.587-.627.581.581 0 0 1 .587.627zm2.061 0a.593.593 0 1 1-.587-.627.581.581 0 0 1 .587.627zm2.694 4.018a.826.826 0 1 0-.826.826.826.826 0 0 0 .826-.826z"/></svg>