<?xml version="1.0" encoding="utf-8"?><!-- Uploaded to: SVG Repo, www.svgrepo.com, Generator: SVG Repo Mixer Tools -->
<svg fill="#000000" width="800px" height="800px" viewBox="-1 0 19 19" xmlns="http://www.w3.org/2000/svg" class="cf-icon-svg"><path d="M16.417 9.579A7.917 7.917 0 1 1 8.5 1.662a7.917 7.917 0 0 1 7.917 7.917zm-3.56-2.732-.805-.805v7.102H5.37a.445.445 0 0 1-.284-.085.407.407 0 0 1 .005-.64.71.71 0 0 1 .454-.08h5.702V5.242h-4.16v2.916L6.45 7.69l-.636.468V5.242h-.482A1.209 1.209 0 0 0 4.126 6.45v6.291a1.209 1.209 0 0 0 1.207 1.208h7.524z"/></svg>