<svg
  viewBox="0 0 800 800"
  fill="none"
  xmlns="http://www.w3.org/2000/svg"
>
  <path
    d="M399.997 66.6641C215.997 66.6641 66.6641 215.997 66.6641 399.997C66.6641 583.997 215.997 733.331 399.997 733.331C583.997 733.331 733.331 583.997 733.331 399.997C733.331 215.997 583.997 66.6641 399.997 66.6641ZM399.997 166.664C455.331 166.664 499.997 211.331 499.997 266.664C499.997 321.997 455.331 366.664 399.997 366.664C344.664 366.664 299.997 321.997 299.997 266.664C299.997 211.331 344.664 166.664 399.997 166.664ZM399.997 639.997C316.664 639.997 242.997 597.331 199.997 532.664C200.997 466.331 333.331 429.997 399.997 429.997C466.331 429.997 598.997 466.331 599.997 532.664C556.997 597.331 483.331 639.997 399.997 639.997Z"
    fill="#FFFFFF"
  />
</svg>