<svg width="800" height="800" viewBox="0 0 800 800" fill="none" xmlns="http://www.w3.org/2000/svg">
<g clip-path="url(#clip0_1767_61)">
<path d="M783.831 319.664C768.166 282.689 742.353 251.355 709.013 228.798C692.342 217.514 674.166 208.872 654.987 202.973C635.441 196.706 614.756 193.573 593.581 193.573C566.752 193.573 540.559 198.592 515.994 208.616C514.745 209.117 513.484 209.619 512.359 210.12C511.613 210.5 510.855 210.745 510.23 211.123C488.92 220.523 469.373 233.558 451.822 249.972C446.316 255.234 441.05 260.756 436.156 266.519C428.384 275.417 419.866 286.078 409.341 300.241L403.819 307.509C398.936 314.144 353.441 380.823 345.291 392.978C342.156 397.737 338.522 403.002 334.642 408.522L327.875 418.166C319.98 429.45 310.58 442.106 301.425 453.892C297.166 459.278 292.906 464.419 289.272 468.678C285.759 472.816 282.503 476.07 280.252 478.202C270.472 487.602 259.188 494.748 246.788 499.767C233.997 505.03 220.339 507.663 206.422 507.663C196.778 507.663 187.255 506.402 177.978 503.769C176.216 503.402 174.587 502.9 172.837 502.277C170.084 501.395 167.319 500.269 164.564 499.144C145.261 490.992 128.848 477.578 117.184 460.159C111.297 451.384 106.659 441.863 103.647 432.083C100.392 421.177 98.7641 410.652 98.7641 400.002C98.7641 385.583 101.653 371.545 107.161 358.144C115.313 338.964 128.85 322.538 146.266 310.764C154.784 304.998 164.32 300.483 174.466 297.35C184.992 293.972 195.775 292.344 206.302 292.344C220.584 292.466 234.256 295.097 246.789 300.103C259.322 305.366 270.595 312.636 280.253 321.669C282.627 323.92 285.761 327.434 289.273 331.313C295.539 338.706 303.311 348.362 311.452 359.267C312.956 361.275 314.341 363.148 315.845 365.155C328.122 346.98 366.48 290.702 371.744 283.567L374.755 279.43C371.12 274.913 367.484 270.531 363.848 266.517C357.948 259.75 353.188 254.608 348.183 249.847C329.383 232.173 307.817 218.392 284.133 208.613C259.445 198.588 233.255 193.57 206.423 193.57C178.48 193.57 151.408 199.089 125.961 209.873C89.2422 225.283 57.7875 251.231 35.2172 284.572C24.0625 300.986 15.4219 319.161 9.15625 338.586C3.13281 358.511 0 379.073 0 400.003C0 427.947 5.38594 454.898 16.1687 480.344C31.7141 517.184 57.525 548.517 90.8672 571.209C107.659 582.359 125.836 591.134 145.014 597.144C164.817 603.288 185.367 606.42 206.42 606.42C233.25 606.42 259.442 601.28 284.13 591.378C306.063 582.358 326.247 569.825 344.166 553.656C345.548 552.53 346.797 551.269 348.044 550.144C353.442 545.261 358.325 539.875 363.845 533.473C371.741 524.453 380.136 513.805 390.784 499.767L396.183 492.497C399.316 488.238 424.627 451.141 445.055 421.3C456.841 404.005 466.62 389.722 468.494 386.969L472.128 381.95C480.905 369.417 490.305 356.639 498.578 346.1C502.837 340.714 507.097 335.575 510.731 331.314C514.244 327.178 517.5 323.922 519.752 321.792C529.408 312.636 540.68 305.366 553.092 300.239C556.227 298.978 559.359 297.852 562.248 296.97C565.247 296.102 568.136 295.342 571.269 294.717C578.539 293.213 585.931 292.466 593.447 292.344C608.366 292.466 622.528 295.342 635.441 300.862C654.742 309.002 671.156 322.416 682.82 339.833C688.83 348.608 693.345 358.144 696.345 368.033C699.613 378.314 701.241 389.097 701.241 400.002C701.241 414.542 698.352 428.569 692.845 441.861C684.57 461.163 671.156 477.577 653.741 489.239C644.842 495.248 635.442 499.766 625.541 502.764C615.138 506.033 604.353 507.661 593.583 507.661C579.666 507.661 566.008 505.03 553.216 499.766C540.817 494.747 529.533 487.6 519.753 478.334C517.38 476.07 514.245 472.57 510.609 468.555C504.845 461.909 497.575 452.767 488.297 440.477C486.913 438.727 485.666 436.842 484.281 434.97C481.65 438.728 479.019 442.742 476.142 446.867C444.933 492.495 431.395 512.164 428.519 516.302L425.252 520.695C429.022 525.077 432.522 529.47 436.034 533.352C441.677 539.997 446.819 545.505 451.823 550.144C470.623 567.819 492.177 581.6 515.873 591.378C540.561 601.281 566.752 606.42 593.583 606.42C621.525 606.42 648.477 601.036 673.909 590.253C710.764 574.709 742.219 548.772 764.775 515.433C776.183 498.383 784.959 480.206 790.723 461.406C796.869 441.603 800.002 421.053 800.002 400C800 372.17 794.614 345.108 783.831 319.664Z" fill="white"/>
</g>
<defs>
<clipPath id="clip0_1767_61">
<rect width="800" height="800" fill="white"/>
</clipPath>
</defs>
</svg>
