<svg width="800" height="800" viewBox="0 0 800 800" fill="none" xmlns="http://www.w3.org/2000/svg">
<path d="M225 325H325V475H225V325ZM725 175V675C725 679.262 723.911 683.453 721.836 687.175C719.761 690.897 716.769 694.028 713.143 696.268C709.518 698.508 705.38 699.785 701.123 699.976C696.865 700.167 692.63 699.267 688.818 697.36L600 652.951L511.182 697.36C507.71 699.096 503.882 700 500 700C496.118 700 492.29 699.096 488.818 697.36L400 652.951L311.182 697.36C307.71 699.097 303.882 700.002 300 700.002C296.118 700.002 292.29 699.097 288.818 697.36L200 652.951L111.182 697.36C107.37 699.267 103.135 700.167 98.8771 699.976C94.6197 699.785 90.4818 698.508 86.8565 696.268C83.2312 694.028 80.2389 690.897 78.1638 687.175C76.0886 683.453 74.9995 679.262 75 675V175C75.0152 161.744 80.2879 149.035 89.6614 139.661C99.0349 130.288 111.744 125.015 125 125H675C688.256 125.015 700.965 130.288 710.339 139.661C719.712 149.035 724.985 161.744 725 175ZM375 300C375 293.37 372.366 287.011 367.677 282.323C362.989 277.634 356.63 275 350 275H200C193.37 275 187.011 277.634 182.323 282.323C177.634 287.011 175 293.37 175 300V500C175 506.63 177.634 512.989 182.323 517.677C187.011 522.366 193.37 525 200 525H350C356.63 525 362.989 522.366 367.677 517.677C372.366 512.989 375 506.63 375 500V300ZM625 450C625 443.37 622.366 437.011 617.677 432.323C612.989 427.634 606.63 425 600 425H450C443.37 425 437.011 427.634 432.322 432.322C427.634 437.011 425 443.37 425 450C425 456.63 427.634 462.989 432.322 467.678C437.011 472.366 443.37 475 450 475H600C606.63 475 612.989 472.366 617.677 467.677C622.366 462.989 625 456.63 625 450ZM625 350C625 343.37 622.366 337.011 617.677 332.323C612.989 327.634 606.63 325 600 325H450C443.37 325 437.011 327.634 432.322 332.322C427.634 337.011 425 343.37 425 350C425 356.63 427.634 362.989 432.322 367.678C437.011 372.366 443.37 375 450 375H600C606.63 375 612.989 372.366 617.677 367.677C622.366 362.989 625 356.63 625 350Z" fill="white"/>
</svg>
