<svg width="800" height="800" viewBox="0 0 800 800" fill="none" xmlns="http://www.w3.org/2000/svg">
<path fill-rule="evenodd" clip-rule="evenodd" d="M333.331 733.331C186.055 733.331 66.6641 613.94 66.6641 466.664C66.6641 319.388 186.055 199.997 333.331 199.997C480.607 199.997 599.997 319.388 599.997 466.664C599.997 613.94 480.607 733.331 333.331 733.331ZM333.331 666.664C443.788 666.664 533.331 577.121 533.331 466.664C533.331 356.207 443.788 266.664 333.331 266.664C222.874 266.664 133.331 356.207 133.331 466.664C133.331 577.121 222.874 666.664 333.331 666.664ZM433.331 499.997C433.331 555.226 388.559 599.997 333.331 599.997C278.102 599.997 233.331 555.226 233.331 499.997H433.331ZM266.664 433.331C285.074 433.331 299.997 418.407 299.997 399.997C299.997 381.588 285.074 366.664 266.664 366.664C248.255 366.664 233.331 381.588 233.331 399.997C233.331 418.407 248.255 433.331 266.664 433.331ZM399.997 433.331C381.588 433.331 366.664 418.407 366.664 399.997C366.664 381.588 381.588 366.664 399.997 366.664C418.407 366.664 433.331 381.588 433.331 399.997C433.331 418.407 418.407 433.331 399.997 433.331ZM620.831 266.664C593.266 260.674 508.331 213.664 508.331 129.164C508.331 94.6463 536.313 66.6641 570.831 66.6641C591.276 66.6641 609.428 76.4808 620.831 91.658C632.234 76.4808 650.386 66.6641 670.831 66.6641C705.349 66.6641 733.331 94.6463 733.331 129.164C733.331 213.664 648.395 260.674 620.831 266.664Z" fill="white"/>
</svg>
