<svg width="800" height="800" viewBox="0 0 800 800" fill="none" xmlns="http://www.w3.org/2000/svg">
<g clip-path="url(#clip0_1761_48)">
<path fill-rule="evenodd" clip-rule="evenodd" d="M399.995 633.331C418.405 633.331 433.328 648.254 433.328 666.664V699.997C433.328 718.407 418.405 733.331 399.995 733.331C381.585 733.331 366.661 718.407 366.661 699.997V666.664C366.661 648.254 381.585 633.331 399.995 633.331ZM564.988 564.991C577.003 552.972 595.912 552.048 608.988 562.217L612.128 564.991L635.698 588.561C648.718 601.577 648.718 622.681 635.698 635.701C623.683 647.716 604.774 648.64 591.698 638.473L588.558 635.701L564.988 612.131C551.971 599.111 551.971 578.007 564.988 564.991ZM235.002 564.991C248.02 578.007 248.02 599.114 235.002 612.131L211.432 635.701C198.415 648.717 177.309 648.717 164.292 635.701C151.274 622.684 151.274 601.577 164.292 588.561L187.862 564.991C200.879 551.971 221.985 551.971 235.002 564.991ZM399.995 66.6641C417.09 66.6641 431.178 79.5322 433.104 96.1101L433.328 99.9974V136.678L705.841 409.191C726.129 429.479 713.269 463.539 685.861 466.463L682.035 466.664H563.328C547.885 542.737 480.628 599.997 399.995 599.997C321.883 599.997 256.322 546.26 238.261 473.74L236.663 466.664H117.96C89.2634 466.664 74.2838 433.479 91.5919 412.038L94.154 409.191L366.661 136.683V99.9974C366.661 81.5881 381.585 66.6641 399.995 66.6641ZM494.305 466.664H305.686C319.414 505.504 356.455 533.331 399.995 533.331C441.358 533.331 476.857 508.217 492.073 472.405L494.305 466.664ZM602.368 399.997L402.288 199.92L399.995 199.997L397.708 199.92L197.629 399.997H602.368Z" fill="white"/>
<path d="M513 447C513 472.196 501.147 496.359 480.05 514.175C458.952 531.991 430.337 542 400.5 542C370.663 542 342.048 531.991 320.95 514.175C299.853 496.359 288 472.196 288 447L400.5 447H513Z" fill="white"/>
</g>
<defs>
<clipPath id="clip0_1761_48">
<rect width="800" height="800" fill="white"/>
</clipPath>
</defs>
</svg>
