<svg width="800" height="800" viewBox="0 0 800 800" fill="none" xmlns="http://www.w3.org/2000/svg">
<path d="M300 200.003V133.336M433.333 200.003V133.336M566.667 200.003V133.336" stroke="white" stroke-width="66.6667" stroke-linecap="round" stroke-linejoin="round"/>
<path d="M100 666.669H700M266.667 500.003V366.669C266.667 357.829 270.179 349.35 276.43 343.099C282.681 336.848 291.159 333.336 300 333.336H566.667C575.507 333.336 583.986 336.848 590.237 343.099C596.488 349.35 600 357.829 600 366.669V500.003C600 544.205 582.441 586.598 551.184 617.854C519.928 649.11 477.536 666.669 433.333 666.669C389.131 666.669 346.738 649.11 315.482 617.854C284.226 586.598 266.667 544.205 266.667 500.003ZM266.667 500.003C266.753 511.192 267.868 522.351 270 533.336H200C182.319 533.336 165.362 526.312 152.86 513.81C140.357 501.307 133.333 484.35 133.333 466.669C133.333 448.988 140.357 432.031 152.86 419.529C165.362 407.026 182.319 400.003 200 400.003H266.667V500.003Z" stroke="white" stroke-width="66.6667" stroke-linecap="round" stroke-linejoin="round"/>
</svg>
