<svg width="800" height="800" viewBox="0 0 800 800" fill="none" xmlns="http://www.w3.org/2000/svg">
<path d="M199.997 630.471C134.79 617.234 85.7109 559.584 85.7109 490.471C85.7109 421.357 134.79 363.707 199.997 350.471C199.997 350.314 199.997 350.154 199.997 349.997C199.997 248.745 282.078 166.664 383.331 166.664C484.581 166.664 566.665 248.745 566.665 349.997C566.665 355.614 566.411 361.174 565.915 366.664H566.665C640.301 366.664 699.998 426.361 699.998 499.997C699.998 562.124 657.505 614.327 599.998 629.131" stroke="white" stroke-width="66.6667" stroke-linecap="round" stroke-linejoin="round"/>
<path d="M300 547.62C300 531.84 312.792 519.047 328.571 519.047H471.43C487.207 519.047 500 531.84 500 547.62V638.097C500 653.874 487.207 666.667 471.43 666.667H328.571C312.792 666.667 300 653.874 300 638.097V547.62Z" stroke="white" stroke-width="66.6667" stroke-linecap="round" stroke-linejoin="round"/>
<path d="M357.141 476.193C357.141 452.523 376.327 433.336 399.997 433.336C423.667 433.336 442.854 452.523 442.854 476.193V519.049H357.141V476.193Z" stroke="white" stroke-width="66.6667" stroke-linecap="round" stroke-linejoin="round"/>
</svg>
