<svg width="800" height="800" viewBox="0 0 800 800" fill="none" xmlns="http://www.w3.org/2000/svg">
<g clip-path="url(#clip0_1766_57)">
<path d="M737.08 421.776C724.643 347.689 672.41 335.849 647.87 334.454C640.145 334.015 632.968 330.098 628.731 323.627C610.952 296.486 587.124 289.309 566.883 289.309C552.348 289.309 539.667 293.012 532.407 295.684C531.5 296.021 530.562 296.179 529.645 296.179C526.774 296.179 524.029 294.625 522.508 292.015C504.448 261.04 478.776 253.048 457.099 253.048C444.481 253.044 433.216 255.754 425.59 258.209C424.798 258.463 423.976 258.582 423.201 258.582C419.056 258.582 415.403 255.183 415.403 250.741V91.454C415.403 55.0442 388.266 36.8359 360.957 36.8359C333.648 36.8359 306.51 55.0442 306.51 91.454V371.645C306.51 388.111 293.027 398.291 279.472 398.291C271.242 398.291 262.854 394.536 257.4 386.155L230.978 345.63C219.403 326.527 202.567 318.611 185.906 318.611C148.249 318.608 111.361 359.06 137.528 402.241L343.709 796.338C345.058 798.918 347.725 800.004 350.635 800.004H640.218C644.349 800.004 647.771 797.318 648.022 793.193L655.268 675.437C655.35 674.077 655.803 672.883 656.555 671.741C728.437 562.865 749.018 492.913 737.08 421.776Z" fill="white"/>
<path d="M134.922 67.13V253.687C134.922 264.619 143.785 273.485 154.721 273.485C165.653 273.485 174.519 264.619 174.519 253.687V68.0606L214.678 107.668C222.406 115.396 235.219 115.399 242.954 107.665C250.685 99.9332 250.82 87.3973 243.089 79.6659L169.286 5.7969C161.558 -1.9312 149.055 -1.9345 141.32 5.8002L65.5276 81.6128C57.7962 89.3442 57.8061 101.88 65.5408 109.611C69.4048 113.475 74.4766 115.409 79.5418 115.409C84.6069 115.409 89.1276 113.475 92.995 109.608L134.922 67.13Z" fill="white"/>
</g>
<defs>
<clipPath id="clip0_1766_57">
<rect width="800" height="800" fill="white"/>
</clipPath>
</defs>
</svg>
